<svg id="Layer_1" data-name="Layer 1" xmlns="http://www.w3.org/2000/svg" viewBox="0 0 457.18 598.96"><g id="Scale"><path d="M259.52,1l20,21.61s156.59,8.28,195,137S543.59,463.2,520.55,500c-10.94,17.48-110.22,90.26-180,99.45-33.71,4.43-193.21-18.52-201.27-28.18V467.39S59.91,297.65,72.71,233.27c7.07-35.58,15.68-168.8,75.72-201.22C171.41,19.64,233.19,14.41,259.52,1Z" transform="translate(-71.31 -1.04)" fill="#99663d"/><g opacity="0.69"><polyline points="364.6 198.9 394.46 362.01 382.98 417.15" fill="none" stroke="#684a38" stroke-linecap="round" stroke-miterlimit="10" stroke-width="4" opacity="0.69"/><line x1="357.53" y1="271.26" x2="360.98" y2="293.09" fill="none" stroke="#684a38" stroke-linecap="round" stroke-miterlimit="10" stroke-width="4" opacity="0.69"/><path d="M159.6,105.42s-62,59.73-34.46,144.74" transform="translate(-71.31 -1.04)" fill="none" stroke="#684a38" stroke-linecap="round" stroke-miterlimit="10" stroke-width="4" opacity="0.69"/><path d="M168,437.4l11.49,28.86-5.75,79s58.59,22.09,102.24,10.6" transform="translate(-71.31 -1.04)" fill="none" stroke="#684a38" stroke-linecap="round" stroke-miterlimit="10" stroke-width="4" opacity="0.69"/></g><line x1="75.15" y1="280.28" x2="91.23" y2="421.66" fill="none" stroke="#9e7248" stroke-linecap="round" stroke-miterlimit="10" stroke-width="5"/><line x1="101.57" y1="271.09" x2="110.15" y2="412.47" fill="none" stroke="#9e7248" stroke-linecap="round" stroke-miterlimit="10" stroke-width="5"/><line x1="125.69" y1="280.1" x2="129.07" y2="417.06" fill="none" stroke="#9e7248" stroke-linecap="round" stroke-miterlimit="10" stroke-width="5"/><line x1="153.26" y1="288.76" x2="153.26" y2="412.47" fill="none" stroke="#9e7248" stroke-linecap="round" stroke-miterlimit="10" stroke-width="5"/><line x1="174.48" y1="282.14" x2="174.48" y2="436.64" fill="none" stroke="#9e7248" stroke-linecap="round" stroke-miterlimit="10" stroke-width="5"/><line x1="199.21" y1="306.44" x2="199.21" y2="412.47" fill="none" stroke="#9e7248" stroke-linecap="round" stroke-miterlimit="10" stroke-width="5"/><line x1="224.48" y1="297.6" x2="226.78" y2="436.64" fill="none" stroke="#9e7248" stroke-linecap="round" stroke-miterlimit="10" stroke-width="5"/><line x1="247.45" y1="319.69" x2="251.78" y2="412.47" fill="none" stroke="#9e7248" stroke-linecap="round" stroke-miterlimit="10" stroke-width="5"/><line x1="275.02" y1="319.69" x2="270.15" y2="436.64" fill="none" stroke="#9e7248" stroke-linecap="round" stroke-miterlimit="10" stroke-width="5"/><line x1="292.86" y1="343.99" x2="291.1" y2="416.89" fill="none" stroke="#9e7248" stroke-linecap="round" stroke-miterlimit="10" stroke-width="5"/><line x1="322.12" y1="323.49" x2="314.08" y2="434.2" fill="none" stroke="#9e7248" stroke-linecap="round" stroke-miterlimit="10" stroke-width="5"/><line x1="336.1" y1="354.86" x2="336.1" y2="420.61" fill="none" stroke="#9e7248" stroke-linecap="round" stroke-miterlimit="10" stroke-width="5"/><line x1="354.28" y1="362.06" x2="354.28" y2="380.83" fill="none" stroke="#9e7248" stroke-linecap="round" stroke-miterlimit="10" stroke-width="5"/></g></svg>