<svg id="Layer_1" data-name="Layer 1" xmlns="http://www.w3.org/2000/svg" viewBox="0 0 600 600"><circle cx="300" cy="300" r="300" fill="#d86b54"/><path d="M300,81.35c122.22,0,221.31,99.08,221.31,221.31S422.22,524,300,524,78.69,424.88,78.69,302.66,177.78,81.35,300,81.35m0-65A286.37,286.37,0,0,0,188.54,566.44,286.36,286.36,0,0,0,411.46,38.88,284.52,284.52,0,0,0,300,16.35Z" fill="#d86b54"/><circle cx="300" cy="306.64" r="240.85" fill="none" stroke="#fff" stroke-miterlimit="10" stroke-width="39"/><g id="Scale"><path d="M277,139.43l11.39,12.31s89.19,4.72,111.05,78,39.36,172.88,26.24,193.83c-6.23,10-62.78,51.41-102.55,56.64-19.2,2.53-110-10.54-114.64-16V405.05S163.31,308.37,170.6,271.7c4-20.26,8.93-96.14,43.13-114.61C226.81,150,262,147.05,277,139.43Z" fill="#916844"/><g opacity="0.69"><polyline points="377.47 252.72 394.48 345.62 387.93 377.03" fill="none" stroke="#634b3b" stroke-linecap="round" stroke-miterlimit="10" stroke-width="4" opacity="0.69"/><line x1="373.44" y1="293.94" x2="375.41" y2="306.37" fill="none" stroke="#634b3b" stroke-linecap="round" stroke-miterlimit="10" stroke-width="4" opacity="0.69"/><path d="M220.09,198.89s-35.33,34-19.63,82.43" fill="none" stroke="#634b3b" stroke-linecap="round" stroke-miterlimit="10" stroke-width="4" opacity="0.69"/><path d="M224.85,388l6.54,16.44-3.27,45s33.37,12.58,58.23,6" fill="none" stroke="#634b3b" stroke-linecap="round" stroke-miterlimit="10" stroke-width="4" opacity="0.69"/></g><line x1="212.6" y1="299.07" x2="221.76" y2="379.6" fill="none" stroke="#96744e" stroke-linecap="round" stroke-miterlimit="10" stroke-width="5"/><line x1="227.65" y1="293.84" x2="232.54" y2="374.36" fill="none" stroke="#96744e" stroke-linecap="round" stroke-miterlimit="10" stroke-width="5"/><line x1="241.39" y1="298.97" x2="243.32" y2="376.98" fill="none" stroke="#96744e" stroke-linecap="round" stroke-miterlimit="10" stroke-width="5"/><line x1="257.09" y1="303.9" x2="257.09" y2="374.36" fill="none" stroke="#96744e" stroke-linecap="round" stroke-miterlimit="10" stroke-width="5"/><line x1="269.18" y1="300.13" x2="269.18" y2="388.13" fill="none" stroke="#96744e" stroke-linecap="round" stroke-miterlimit="10" stroke-width="5"/><line x1="283.26" y1="313.97" x2="283.26" y2="374.36" fill="none" stroke="#96744e" stroke-linecap="round" stroke-miterlimit="10" stroke-width="5"/><line x1="297.66" y1="308.94" x2="298.97" y2="388.13" fill="none" stroke="#96744e" stroke-linecap="round" stroke-miterlimit="10" stroke-width="5"/><line x1="310.74" y1="321.52" x2="313.21" y2="374.36" fill="none" stroke="#96744e" stroke-linecap="round" stroke-miterlimit="10" stroke-width="5"/><line x1="326.45" y1="321.52" x2="323.67" y2="388.13" fill="none" stroke="#96744e" stroke-linecap="round" stroke-miterlimit="10" stroke-width="5"/><line x1="336.61" y1="335.36" x2="335.61" y2="376.88" fill="none" stroke="#96744e" stroke-linecap="round" stroke-miterlimit="10" stroke-width="5"/><line x1="353.27" y1="323.68" x2="348.69" y2="386.74" fill="none" stroke="#96744e" stroke-linecap="round" stroke-miterlimit="10" stroke-width="5"/><line x1="361.24" y1="341.55" x2="361.24" y2="379" fill="none" stroke="#96744e" stroke-linecap="round" stroke-miterlimit="10" stroke-width="5"/><line x1="371.59" y1="345.65" x2="371.59" y2="356.34" fill="none" stroke="#96744e" stroke-linecap="round" stroke-miterlimit="10" stroke-width="5"/></g></svg>