<svg id="Layer_1" data-name="Layer 1" xmlns="http://www.w3.org/2000/svg" viewBox="0 0 600 600"><circle cx="300" cy="300" r="300" fill="#ed7243"/><g id="Scale"><path d="M270.91,85.52,285.26,101s112.42,5.94,140,98.38,49.6,217.88,33.06,244.29c-7.85,12.55-79.12,64.8-129.24,71.4-24.21,3.18-138.71-13.3-144.49-20.23V420.31s-57-121.85-47.77-168.07c5.08-25.54,11.26-121.18,54.36-144.45C207.66,98.88,252,95.12,270.91,85.52Z" transform="translate(0)" fill="#99663d"/><g opacity="0.69"><polyline points="397.54 228.31 418.98 345.41 410.73 384.99" fill="none" stroke="#684a38" stroke-linecap="round" stroke-miterlimit="10" stroke-width="4" opacity="0.69"/><line x1="392.47" y1="280.26" x2="394.94" y2="295.93" fill="none" stroke="#684a38" stroke-linecap="round" stroke-miterlimit="10" stroke-width="4" opacity="0.69"/><path d="M199.18,160.46s-44.53,42.88-24.74,103.9" transform="translate(0)" fill="none" stroke="#684a38" stroke-linecap="round" stroke-miterlimit="10" stroke-width="4" opacity="0.69"/><path d="M205.18,398.79l8.25,20.71-4.13,56.71s42.06,15.86,73.4,7.61" transform="translate(0)" fill="none" stroke="#684a38" stroke-linecap="round" stroke-miterlimit="10" stroke-width="4" opacity="0.69"/></g><line x1="189.74" y1="286.73" x2="201.29" y2="388.23" fill="none" stroke="#9e7248" stroke-linecap="round" stroke-miterlimit="10" stroke-width="5"/><line x1="208.71" y1="280.14" x2="214.87" y2="381.63" fill="none" stroke="#9e7248" stroke-linecap="round" stroke-miterlimit="10" stroke-width="5"/><line x1="226.03" y1="286.61" x2="228.45" y2="384.93" fill="none" stroke="#9e7248" stroke-linecap="round" stroke-miterlimit="10" stroke-width="5"/><line x1="245.82" y1="292.82" x2="245.82" y2="381.63" fill="none" stroke="#9e7248" stroke-linecap="round" stroke-miterlimit="10" stroke-width="5"/><line x1="261.05" y1="288.07" x2="261.05" y2="398.98" fill="none" stroke="#9e7248" stroke-linecap="round" stroke-miterlimit="10" stroke-width="5"/><line x1="278.8" y1="305.51" x2="278.8" y2="381.63" fill="none" stroke="#9e7248" stroke-linecap="round" stroke-miterlimit="10" stroke-width="5"/><line x1="296.95" y1="299.17" x2="298.6" y2="398.98" fill="none" stroke="#9e7248" stroke-linecap="round" stroke-miterlimit="10" stroke-width="5"/><line x1="313.44" y1="315.03" x2="316.54" y2="381.63" fill="none" stroke="#9e7248" stroke-linecap="round" stroke-miterlimit="10" stroke-width="5"/><line x1="333.23" y1="315.03" x2="329.74" y2="398.98" fill="none" stroke="#9e7248" stroke-linecap="round" stroke-miterlimit="10" stroke-width="5"/><line x1="346.04" y1="332.47" x2="344.78" y2="384.8" fill="none" stroke="#9e7248" stroke-linecap="round" stroke-miterlimit="10" stroke-width="5"/><line x1="367.04" y1="317.76" x2="361.27" y2="397.24" fill="none" stroke="#9e7248" stroke-linecap="round" stroke-miterlimit="10" stroke-width="5"/><line x1="377.08" y1="340.27" x2="377.08" y2="387.47" fill="none" stroke="#9e7248" stroke-linecap="round" stroke-miterlimit="10" stroke-width="5"/><line x1="390.13" y1="345.44" x2="390.13" y2="358.92" fill="none" stroke="#9e7248" stroke-linecap="round" stroke-miterlimit="10" stroke-width="5"/></g></svg>